<?xml version="1.0" encoding="utf-8" standalone="no"?>
<!DOCTYPE svg PUBLIC "-//W3C//DTD SVG 1.1//EN"
  "http://www.w3.org/Graphics/SVG/1.1/DTD/svg11.dtd">
<svg xmlns:xlink="http://www.w3.org/1999/xlink" width="356.173429pt" height="362.14pt" viewBox="0 0 356.173429 362.14" xmlns="http://www.w3.org/2000/svg" version="1.1">
 <metadata>
  <rdf:RDF xmlns:dc="http://purl.org/dc/elements/1.1/" xmlns:cc="http://creativecommons.org/ns#" xmlns:rdf="http://www.w3.org/1999/02/22-rdf-syntax-ns#">
   <cc:Work>
    <dc:type rdf:resource="http://purl.org/dc/dcmitype/StillImage"/>
    <dc:date>2026-06-03T20:53:50.240977</dc:date>
    <dc:format>image/svg+xml</dc:format>
    <dc:creator>
     <cc:Agent>
      <dc:title>Matplotlib v3.10.9, https://matplotlib.org/</dc:title>
     </cc:Agent>
    </dc:creator>
   </cc:Work>
  </rdf:RDF>
 </metadata>
 <defs>
  <style type="text/css">*{stroke-linejoin: round; stroke-linecap: butt}</style>
 </defs>
 <g id="figure_1">
  <g id="patch_1">
   <path d="M 0 362.14 
L 356.173429 362.14 
L 356.173429 0 
L 0 0 
z
" style="fill: #ffffff"/>
  </g>
  <g id="patch_2">
   <path d="M 7.2 354.94 
L 339.84 354.94 
L 339.84 22.3 
L 7.2 22.3 
z
" style="fill: #ffffff"/>
  </g>
  <g id="pane3d_1">
   <g id="patch_3">
    <path d="M 31.303343 273.536137 
L 142.144687 202.124089 
L 141.011413 62.090812 
L 26.208134 122.083813 
" style="fill: #f2f2f2; opacity: 0.5; stroke: #f2f2f2; stroke-linejoin: miter"/>
   </g>
  </g>
  <g id="pane3d_2">
   <g id="patch_4">
    <path d="M 142.144687 202.124089 
L 319.010618 241.747425 
L 323.710154 95.33325 
L 141.011413 62.090812 
" style="fill: #e6e6e6; opacity: 0.5; stroke: #e6e6e6; stroke-linejoin: miter"/>
   </g>
  </g>
  <g id="pane3d_3">
   <g id="patch_5">
    <path d="M 31.303343 273.536137 
L 219.631228 321.36999 
L 319.010618 241.747425 
L 142.144687 202.124089 
" style="fill: #ececec; opacity: 0.5; stroke: #ececec; stroke-linejoin: miter"/>
   </g>
  </g>
  <g id="grid3d_1">
   <g id="Line3DCollection_1">
    <path d="M 46.196903 277.318988 
L 156.197875 205.27243 
L 155.505583 64.728058 
" style="fill: none; stroke: #b0b0b0; stroke-width: 0.8"/>
    <path d="M 76.402233 284.990913 
L 184.663881 211.649679 
L 184.876712 70.0722 
" style="fill: none; stroke: #b0b0b0; stroke-width: 0.8"/>
    <path d="M 107.178346 292.807812 
L 213.619706 218.136662 
L 214.769556 75.511268 
" style="fill: none; stroke: #b0b0b0; stroke-width: 0.8"/>
    <path d="M 138.541575 300.773834 
L 243.078103 224.736237 
L 245.198141 81.047816 
" style="fill: none; stroke: #b0b0b0; stroke-width: 0.8"/>
    <path d="M 170.508883 308.893287 
L 273.052271 231.451361 
L 276.177001 86.684488 
" style="fill: none; stroke: #b0b0b0; stroke-width: 0.8"/>
    <path d="M 203.097891 317.170648 
L 303.555874 238.285093 
L 307.721197 92.424024 
" style="fill: none; stroke: #b0b0b0; stroke-width: 0.8"/>
   </g>
  </g>
  <g id="grid3d_2">
   <g id="Line3DCollection_2">
    <path d="M 39.130435 115.330978 
L 43.746121 265.519595 
L 230.838109 312.391059 
" style="fill: none; stroke: #b0b0b0; stroke-width: 0.8"/>
    <path d="M 55.957032 106.537866 
L 59.961047 255.072761 
L 245.423113 300.705584 
" style="fill: none; stroke: #b0b0b0; stroke-width: 0.8"/>
    <path d="M 72.339618 97.976782 
L 75.76196 244.892666 
L 259.614696 289.335317 
" style="fill: none; stroke: #b0b0b0; stroke-width: 0.8"/>
    <path d="M 88.295537 89.638663 
L 91.164514 234.969221 
L 273.428563 278.267674 
" style="fill: none; stroke: #b0b0b0; stroke-width: 0.8"/>
    <path d="M 103.841244 81.514909 
L 106.183587 225.292843 
L 286.879598 267.490733 
" style="fill: none; stroke: #b0b0b0; stroke-width: 0.8"/>
    <path d="M 118.992357 73.597359 
L 120.833324 215.854418 
L 299.981909 256.993188 
" style="fill: none; stroke: #b0b0b0; stroke-width: 0.8"/>
    <path d="M 133.763711 65.87826 
L 135.127183 206.645275 
L 312.748884 246.764313 
" style="fill: none; stroke: #b0b0b0; stroke-width: 0.8"/>
   </g>
  </g>
  <g id="grid3d_3">
   <g id="Line3DCollection_3">
    <path d="M 319.010618 241.747425 
L 142.144687 202.124089 
L 31.303343 273.536137 
" style="fill: none; stroke: #b0b0b0; stroke-width: 0.8"/>
    <path d="M 319.517763 225.947304 
L 142.022207 186.989853 
L 30.754162 257.212035 
" style="fill: none; stroke: #b0b0b0; stroke-width: 0.8"/>
    <path d="M 320.028569 210.03311 
L 141.898888 171.751911 
L 30.200854 240.765263 
" style="fill: none; stroke: #b0b0b0; stroke-width: 0.8"/>
    <path d="M 320.543077 194.003603 
L 141.774721 156.409193 
L 29.643373 224.194433 
" style="fill: none; stroke: #b0b0b0; stroke-width: 0.8"/>
    <path d="M 321.061327 177.857526 
L 141.649698 140.960616 
L 29.08167 207.498137 
" style="fill: none; stroke: #b0b0b0; stroke-width: 0.8"/>
    <path d="M 321.583359 161.593602 
L 141.523809 125.405079 
L 28.515699 190.674942 
" style="fill: none; stroke: #b0b0b0; stroke-width: 0.8"/>
    <path d="M 322.109216 145.210536 
L 141.397045 109.741469 
L 27.94541 173.723399 
" style="fill: none; stroke: #b0b0b0; stroke-width: 0.8"/>
    <path d="M 322.638938 128.707014 
L 141.269397 93.968654 
L 27.370753 156.642031 
" style="fill: none; stroke: #b0b0b0; stroke-width: 0.8"/>
    <path d="M 323.17257 112.081703 
L 141.140856 78.085489 
L 26.791678 139.429343 
" style="fill: none; stroke: #b0b0b0; stroke-width: 0.8"/>
    <path d="M 323.710154 95.33325 
L 141.011413 62.090812 
L 26.208134 122.083813 
" style="fill: none; stroke: #b0b0b0; stroke-width: 0.8"/>
   </g>
  </g>
  <g id="axis3d_1">
   <g id="line2d_1">
    <path d="M 31.303343 273.536137 
L 219.631228 321.36999 
" style="fill: none; stroke: #000000; stroke-width: 0.8; stroke-linecap: square"/>
   </g>
   <g id="xtick_1">
    <g id="line2d_2">
     <path d="M 47.160974 276.687558 
L 44.264296 278.584774 
" style="fill: none; stroke: #000000; stroke-width: 0.8; stroke-linecap: square"/>
    </g>
    <g id="text_1">
     <!-- 0.4 -->
     <g transform="translate(32.093187 298.455811) scale(0.08 -0.08)">
      <defs>
       <path id="DejaVuSans-30" d="M 2034 4250 
Q 1547 4250 1301 3770 
Q 1056 3291 1056 2328 
Q 1056 1369 1301 889 
Q 1547 409 2034 409 
Q 2525 409 2770 889 
Q 3016 1369 3016 2328 
Q 3016 3291 2770 3770 
Q 2525 4250 2034 4250 
z
M 2034 4750 
Q 2819 4750 3233 4129 
Q 3647 3509 3647 2328 
Q 3647 1150 3233 529 
Q 2819 -91 2034 -91 
Q 1250 -91 836 529 
Q 422 1150 422 2328 
Q 422 3509 836 4129 
Q 1250 4750 2034 4750 
z
" transform="scale(0.015625)"/>
       <path id="DejaVuSans-2e" d="M 684 794 
L 1344 794 
L 1344 0 
L 684 0 
L 684 794 
z
" transform="scale(0.015625)"/>
       <path id="DejaVuSans-34" d="M 2419 4116 
L 825 1625 
L 2419 1625 
L 2419 4116 
z
M 2253 4666 
L 3047 4666 
L 3047 1625 
L 3713 1625 
L 3713 1100 
L 3047 1100 
L 3047 0 
L 2419 0 
L 2419 1100 
L 313 1100 
L 313 1709 
L 2253 4666 
z
" transform="scale(0.015625)"/>
      </defs>
      <use xlink:href="#DejaVuSans-30"/>
      <use xlink:href="#DejaVuSans-2e" transform="translate(63.623047 0)"/>
      <use xlink:href="#DejaVuSans-34" transform="translate(95.410156 0)"/>
     </g>
    </g>
   </g>
   <g id="xtick_2">
    <g id="line2d_3">
     <path d="M 77.351834 284.347612 
L 74.498592 286.280524 
" style="fill: none; stroke: #000000; stroke-width: 0.8; stroke-linecap: square"/>
    </g>
    <g id="text_2">
     <!-- 0.6 -->
     <g transform="translate(62.353064 306.301611) scale(0.08 -0.08)">
      <defs>
       <path id="DejaVuSans-36" d="M 2113 2584 
Q 1688 2584 1439 2293 
Q 1191 2003 1191 1497 
Q 1191 994 1439 701 
Q 1688 409 2113 409 
Q 2538 409 2786 701 
Q 3034 994 3034 1497 
Q 3034 2003 2786 2293 
Q 2538 2584 2113 2584 
z
M 3366 4563 
L 3366 3988 
Q 3128 4100 2886 4159 
Q 2644 4219 2406 4219 
Q 1781 4219 1451 3797 
Q 1122 3375 1075 2522 
Q 1259 2794 1537 2939 
Q 1816 3084 2150 3084 
Q 2853 3084 3261 2657 
Q 3669 2231 3669 1497 
Q 3669 778 3244 343 
Q 2819 -91 2113 -91 
Q 1303 -91 875 529 
Q 447 1150 447 2328 
Q 447 3434 972 4092 
Q 1497 4750 2381 4750 
Q 2619 4750 2861 4703 
Q 3103 4656 3366 4563 
z
" transform="scale(0.015625)"/>
      </defs>
      <use xlink:href="#DejaVuSans-30"/>
      <use xlink:href="#DejaVuSans-2e" transform="translate(63.623047 0)"/>
      <use xlink:href="#DejaVuSans-36" transform="translate(95.410156 0)"/>
     </g>
    </g>
   </g>
   <g id="xtick_3">
    <g id="line2d_4">
     <path d="M 108.112755 292.152302 
L 105.305117 294.121927 
" style="fill: none; stroke: #000000; stroke-width: 0.8; stroke-linecap: square"/>
    </g>
    <g id="text_3">
     <!-- 0.8 -->
     <g transform="translate(93.187188 314.296302) scale(0.08 -0.08)">
      <defs>
       <path id="DejaVuSans-38" d="M 2034 2216 
Q 1584 2216 1326 1975 
Q 1069 1734 1069 1313 
Q 1069 891 1326 650 
Q 1584 409 2034 409 
Q 2484 409 2743 651 
Q 3003 894 3003 1313 
Q 3003 1734 2745 1975 
Q 2488 2216 2034 2216 
z
M 1403 2484 
Q 997 2584 770 2862 
Q 544 3141 544 3541 
Q 544 4100 942 4425 
Q 1341 4750 2034 4750 
Q 2731 4750 3128 4425 
Q 3525 4100 3525 3541 
Q 3525 3141 3298 2862 
Q 3072 2584 2669 2484 
Q 3125 2378 3379 2068 
Q 3634 1759 3634 1313 
Q 3634 634 3220 271 
Q 2806 -91 2034 -91 
Q 1263 -91 848 271 
Q 434 634 434 1313 
Q 434 1759 690 2068 
Q 947 2378 1403 2484 
z
M 1172 3481 
Q 1172 3119 1398 2916 
Q 1625 2713 2034 2713 
Q 2441 2713 2670 2916 
Q 2900 3119 2900 3481 
Q 2900 3844 2670 4047 
Q 2441 4250 2034 4250 
Q 1625 4250 1398 4047 
Q 1172 3844 1172 3481 
z
" transform="scale(0.015625)"/>
      </defs>
      <use xlink:href="#DejaVuSans-30"/>
      <use xlink:href="#DejaVuSans-2e" transform="translate(63.623047 0)"/>
      <use xlink:href="#DejaVuSans-38" transform="translate(95.410156 0)"/>
     </g>
    </g>
   </g>
   <g id="xtick_4">
    <g id="line2d_5">
     <path d="M 139.460038 300.105764 
L 136.700272 302.113158 
" style="fill: none; stroke: #000000; stroke-width: 0.8; stroke-linecap: square"/>
    </g>
    <g id="text_4">
     <!-- 1.0 -->
     <g transform="translate(124.612062 322.444163) scale(0.08 -0.08)">
      <defs>
       <path id="DejaVuSans-31" d="M 794 531 
L 1825 531 
L 1825 4091 
L 703 3866 
L 703 4441 
L 1819 4666 
L 2450 4666 
L 2450 531 
L 3481 531 
L 3481 0 
L 794 0 
L 794 531 
z
" transform="scale(0.015625)"/>
      </defs>
      <use xlink:href="#DejaVuSans-31"/>
      <use xlink:href="#DejaVuSans-2e" transform="translate(63.623047 0)"/>
      <use xlink:href="#DejaVuSans-30" transform="translate(95.410156 0)"/>
     </g>
    </g>
   </g>
   <g id="xtick_5">
    <g id="line2d_6">
     <path d="M 171.41061 308.212293 
L 168.70109 310.258552 
" style="fill: none; stroke: #000000; stroke-width: 0.8; stroke-linecap: square"/>
    </g>
    <g id="text_5">
     <!-- 1.2 -->
     <g transform="translate(156.644827 330.749639) scale(0.08 -0.08)">
      <defs>
       <path id="DejaVuSans-32" d="M 1228 531 
L 3431 531 
L 3431 0 
L 469 0 
L 469 531 
Q 828 903 1448 1529 
Q 2069 2156 2228 2338 
Q 2531 2678 2651 2914 
Q 2772 3150 2772 3378 
Q 2772 3750 2511 3984 
Q 2250 4219 1831 4219 
Q 1534 4219 1204 4116 
Q 875 4013 500 3803 
L 500 4441 
Q 881 4594 1212 4672 
Q 1544 4750 1819 4750 
Q 2544 4750 2975 4387 
Q 3406 4025 3406 3419 
Q 3406 3131 3298 2873 
Q 3191 2616 2906 2266 
Q 2828 2175 2409 1742 
Q 1991 1309 1228 531 
z
" transform="scale(0.015625)"/>
      </defs>
      <use xlink:href="#DejaVuSans-31"/>
      <use xlink:href="#DejaVuSans-2e" transform="translate(63.623047 0)"/>
      <use xlink:href="#DejaVuSans-32" transform="translate(95.410156 0)"/>
     </g>
    </g>
   </g>
   <g id="xtick_6">
    <g id="line2d_7">
     <path d="M 203.982054 316.47635 
L 201.325269 318.562615 
" style="fill: none; stroke: #000000; stroke-width: 0.8; stroke-linecap: square"/>
    </g>
    <g id="text_6">
     <!-- 1.4 -->
     <g transform="translate(189.303294 339.217347) scale(0.08 -0.08)">
      <use xlink:href="#DejaVuSans-31"/>
      <use xlink:href="#DejaVuSans-2e" transform="translate(63.623047 0)"/>
      <use xlink:href="#DejaVuSans-34" transform="translate(95.410156 0)"/>
     </g>
    </g>
   </g>
   <g id="text_7">
    <!-- $\rho$ -->
    <g transform="translate(102.783197 332.318166) rotate(-345.748667) scale(0.09 -0.09)">
     <defs>
      <path id="DejaVuSans-Oblique-3c1" d="M 1203 2875 
Q 1453 3194 1981 3475 
Q 2188 3584 2756 3584 
Q 3394 3584 3694 3078 
Q 3994 2572 3834 1747 
Q 3672 922 3175 415 
Q 2678 -91 2041 -91 
Q 1656 -91 1409 63 
Q 1163 213 1044 525 
L 681 -1331 
L 103 -1331 
L 697 1716 
Q 838 2438 1203 2875 
z
M 3238 1747 
Q 3359 2381 3169 2744 
Q 2978 3103 2522 3103 
Q 2066 3103 1734 2744 
Q 1403 2381 1281 1747 
Q 1156 1113 1347 750 
Q 1538 391 1994 391 
Q 2450 391 2781 750 
Q 3113 1113 3238 1747 
z
" transform="scale(0.015625)"/>
     </defs>
     <use xlink:href="#DejaVuSans-Oblique-3c1"/>
    </g>
   </g>
  </g>
  <g id="axis3d_2">
   <g id="line2d_8">
    <path d="M 319.010618 241.747425 
L 219.631228 321.36999 
" style="fill: none; stroke: #000000; stroke-width: 0.8; stroke-linecap: square"/>
   </g>
   <g id="xtick_7">
    <g id="line2d_9">
     <path d="M 229.255267 311.994516 
L 234.008203 313.185252 
" style="fill: none; stroke: #000000; stroke-width: 0.8; stroke-linecap: square"/>
    </g>
    <g id="text_8">
     <!-- 0.2 -->
     <g transform="translate(237.512687 331.869593) scale(0.08 -0.08)">
      <use xlink:href="#DejaVuSans-30"/>
      <use xlink:href="#DejaVuSans-2e" transform="translate(63.623047 0)"/>
      <use xlink:href="#DejaVuSans-32" transform="translate(95.410156 0)"/>
     </g>
    </g>
   </g>
   <g id="xtick_8">
    <g id="line2d_10">
     <path d="M 243.855228 300.319807 
L 248.563194 301.478199 
" style="fill: none; stroke: #000000; stroke-width: 0.8; stroke-linecap: square"/>
    </g>
    <g id="text_9">
     <!-- 0.4 -->
     <g transform="translate(251.941063 319.983133) scale(0.08 -0.08)">
      <use xlink:href="#DejaVuSans-30"/>
      <use xlink:href="#DejaVuSans-2e" transform="translate(63.623047 0)"/>
      <use xlink:href="#DejaVuSans-34" transform="translate(95.410156 0)"/>
     </g>
    </g>
   </g>
   <g id="xtick_9">
    <g id="line2d_11">
     <path d="M 258.061541 288.959873 
L 262.725218 290.087222 
" style="fill: none; stroke: #000000; stroke-width: 0.8; stroke-linecap: square"/>
    </g>
    <g id="text_10">
     <!-- 0.6 -->
     <g transform="translate(265.979666 308.417777) scale(0.08 -0.08)">
      <use xlink:href="#DejaVuSans-30"/>
      <use xlink:href="#DejaVuSans-2e" transform="translate(63.623047 0)"/>
      <use xlink:href="#DejaVuSans-36" transform="translate(95.410156 0)"/>
     </g>
    </g>
   </g>
   <g id="xtick_10">
    <g id="line2d_12">
     <path d="M 271.889915 277.902154 
L 276.509978 278.999691 
" style="fill: none; stroke: #000000; stroke-width: 0.8; stroke-linecap: square"/>
    </g>
    <g id="text_11">
     <!-- 0.8 -->
     <g transform="translate(279.644082 297.160687) scale(0.08 -0.08)">
      <use xlink:href="#DejaVuSans-30"/>
      <use xlink:href="#DejaVuSans-2e" transform="translate(63.623047 0)"/>
      <use xlink:href="#DejaVuSans-38" transform="translate(95.410156 0)"/>
     </g>
    </g>
   </g>
   <g id="xtick_11">
    <g id="line2d_13">
     <path d="M 285.355235 267.134748 
L 289.93235 268.203641 
" style="fill: none; stroke: #000000; stroke-width: 0.8; stroke-linecap: square"/>
    </g>
    <g id="text_12">
     <!-- 1.0 -->
     <g transform="translate(292.949072 286.1997) scale(0.08 -0.08)">
      <use xlink:href="#DejaVuSans-31"/>
      <use xlink:href="#DejaVuSans-2e" transform="translate(63.623047 0)"/>
      <use xlink:href="#DejaVuSans-30" transform="translate(95.410156 0)"/>
     </g>
    </g>
   </g>
   <g id="xtick_12">
    <g id="line2d_14">
     <path d="M 298.471612 256.646371 
L 303.006439 257.687726 
" style="fill: none; stroke: #000000; stroke-width: 0.8; stroke-linecap: square"/>
    </g>
    <g id="text_13">
     <!-- 1.2 -->
     <g transform="translate(305.908636 275.523285) scale(0.08 -0.08)">
      <use xlink:href="#DejaVuSans-31"/>
      <use xlink:href="#DejaVuSans-2e" transform="translate(63.623047 0)"/>
      <use xlink:href="#DejaVuSans-32" transform="translate(95.410156 0)"/>
     </g>
    </g>
   </g>
   <g id="xtick_13">
    <g id="line2d_15">
     <path d="M 311.252437 246.426314 
L 315.745627 247.441182 
" style="fill: none; stroke: #000000; stroke-width: 0.8; stroke-linecap: square"/>
    </g>
    <g id="text_14">
     <!-- 1.4 -->
     <g transform="translate(318.536051 265.120501) scale(0.08 -0.08)">
      <use xlink:href="#DejaVuSans-31"/>
      <use xlink:href="#DejaVuSans-2e" transform="translate(63.623047 0)"/>
      <use xlink:href="#DejaVuSans-34" transform="translate(95.410156 0)"/>
     </g>
    </g>
   </g>
   <g id="text_15">
    <!-- $s_{\mathrm{in}}$ -->
    <g transform="translate(296.523718 312.877269) rotate(-38.701636) scale(0.09 -0.09)">
     <defs>
      <path id="DejaVuSans-Oblique-73" d="M 3200 3397 
L 3091 2853 
Q 2863 2978 2609 3040 
Q 2356 3103 2088 3103 
Q 1634 3103 1373 2948 
Q 1113 2794 1113 2528 
Q 1113 2219 1719 2053 
Q 1766 2041 1788 2034 
L 1972 1978 
Q 2547 1819 2739 1644 
Q 2931 1469 2931 1166 
Q 2931 609 2489 259 
Q 2047 -91 1331 -91 
Q 1053 -91 747 -37 
Q 441 16 72 128 
L 184 722 
Q 500 559 806 475 
Q 1113 391 1394 391 
Q 1816 391 2080 572 
Q 2344 753 2344 1031 
Q 2344 1331 1650 1516 
L 1591 1531 
L 1394 1581 
Q 956 1697 753 1886 
Q 550 2075 550 2369 
Q 550 2928 970 3256 
Q 1391 3584 2113 3584 
Q 2397 3584 2667 3537 
Q 2938 3491 3200 3397 
z
" transform="scale(0.015625)"/>
      <path id="DejaVuSans-69" d="M 603 3500 
L 1178 3500 
L 1178 0 
L 603 0 
L 603 3500 
z
M 603 4863 
L 1178 4863 
L 1178 4134 
L 603 4134 
L 603 4863 
z
" transform="scale(0.015625)"/>
      <path id="DejaVuSans-6e" d="M 3513 2113 
L 3513 0 
L 2938 0 
L 2938 2094 
Q 2938 2591 2744 2837 
Q 2550 3084 2163 3084 
Q 1697 3084 1428 2787 
Q 1159 2491 1159 1978 
L 1159 0 
L 581 0 
L 581 3500 
L 1159 3500 
L 1159 2956 
Q 1366 3272 1645 3428 
Q 1925 3584 2291 3584 
Q 2894 3584 3203 3211 
Q 3513 2838 3513 2113 
z
" transform="scale(0.015625)"/>
     </defs>
     <use xlink:href="#DejaVuSans-Oblique-73"/>
     <use xlink:href="#DejaVuSans-69" transform="translate(52.099609 -16.40625) scale(0.7)"/>
     <use xlink:href="#DejaVuSans-6e" transform="translate(71.547852 -16.40625) scale(0.7)"/>
    </g>
   </g>
  </g>
  <g id="axis3d_3">
   <g id="line2d_16">
    <path d="M 319.010618 241.747425 
L 323.710154 95.33325 
" style="fill: none; stroke: #000000; stroke-width: 0.8; stroke-linecap: square"/>
   </g>
   <g id="xtick_14">
    <g id="line2d_17">
     <path d="M 317.521016 241.413709 
L 321.99363 242.41571 
" style="fill: none; stroke: #000000; stroke-width: 0.8; stroke-linecap: square"/>
    </g>
    <g id="text_16">
     <!-- 0.1 -->
     <g transform="translate(330.955384 245.803547) scale(0.08 -0.08)">
      <use xlink:href="#DejaVuSans-30"/>
      <use xlink:href="#DejaVuSans-2e" transform="translate(63.623047 0)"/>
      <use xlink:href="#DejaVuSans-31" transform="translate(95.410156 0)"/>
     </g>
    </g>
   </g>
   <g id="xtick_15">
    <g id="line2d_18">
     <path d="M 318.022589 225.619137 
L 322.511947 226.60448 
" style="fill: none; stroke: #000000; stroke-width: 0.8; stroke-linecap: square"/>
    </g>
    <g id="text_17">
     <!-- 0.2 -->
     <g transform="translate(331.526891 230.037074) scale(0.08 -0.08)">
      <use xlink:href="#DejaVuSans-30"/>
      <use xlink:href="#DejaVuSans-2e" transform="translate(63.623047 0)"/>
      <use xlink:href="#DejaVuSans-32" transform="translate(95.410156 0)"/>
     </g>
    </g>
   </g>
   <g id="xtick_16">
    <g id="line2d_19">
     <path d="M 318.527782 209.710581 
L 323.034011 210.678998 
" style="fill: none; stroke: #000000; stroke-width: 0.8; stroke-linecap: square"/>
    </g>
    <g id="text_18">
     <!-- 0.3 -->
     <g transform="translate(332.102513 214.157067) scale(0.08 -0.08)">
      <defs>
       <path id="DejaVuSans-33" d="M 2597 2516 
Q 3050 2419 3304 2112 
Q 3559 1806 3559 1356 
Q 3559 666 3084 287 
Q 2609 -91 1734 -91 
Q 1441 -91 1130 -33 
Q 819 25 488 141 
L 488 750 
Q 750 597 1062 519 
Q 1375 441 1716 441 
Q 2309 441 2620 675 
Q 2931 909 2931 1356 
Q 2931 1769 2642 2001 
Q 2353 2234 1838 2234 
L 1294 2234 
L 1294 2753 
L 1863 2753 
Q 2328 2753 2575 2939 
Q 2822 3125 2822 3475 
Q 2822 3834 2567 4026 
Q 2313 4219 1838 4219 
Q 1578 4219 1281 4162 
Q 984 4106 628 3988 
L 628 4550 
Q 988 4650 1302 4700 
Q 1616 4750 1894 4750 
Q 2613 4750 3031 4423 
Q 3450 4097 3450 3541 
Q 3450 3153 3228 2886 
Q 3006 2619 2597 2516 
z
" transform="scale(0.015625)"/>
      </defs>
      <use xlink:href="#DejaVuSans-30"/>
      <use xlink:href="#DejaVuSans-2e" transform="translate(63.623047 0)"/>
      <use xlink:href="#DejaVuSans-33" transform="translate(95.410156 0)"/>
     </g>
    </g>
   </g>
   <g id="xtick_17">
    <g id="line2d_20">
     <path d="M 319.036633 193.686803 
L 323.55986 194.638023 
" style="fill: none; stroke: #000000; stroke-width: 0.8; stroke-linecap: square"/>
    </g>
    <g id="text_19">
     <!-- 0.4 -->
     <g transform="translate(332.682295 198.162295) scale(0.08 -0.08)">
      <use xlink:href="#DejaVuSans-30"/>
      <use xlink:href="#DejaVuSans-2e" transform="translate(63.623047 0)"/>
      <use xlink:href="#DejaVuSans-34" transform="translate(95.410156 0)"/>
     </g>
    </g>
   </g>
   <g id="xtick_18">
    <g id="line2d_21">
     <path d="M 319.549184 177.546546 
L 324.089536 178.480292 
" style="fill: none; stroke: #000000; stroke-width: 0.8; stroke-linecap: square"/>
    </g>
    <g id="text_20">
     <!-- 0.5 -->
     <g transform="translate(333.266282 182.051509) scale(0.08 -0.08)">
      <defs>
       <path id="DejaVuSans-35" d="M 691 4666 
L 3169 4666 
L 3169 4134 
L 1269 4134 
L 1269 2991 
Q 1406 3038 1543 3061 
Q 1681 3084 1819 3084 
Q 2600 3084 3056 2656 
Q 3513 2228 3513 1497 
Q 3513 744 3044 326 
Q 2575 -91 1722 -91 
Q 1428 -91 1123 -41 
Q 819 9 494 109 
L 494 744 
Q 775 591 1075 516 
Q 1375 441 1709 441 
Q 2250 441 2565 725 
Q 2881 1009 2881 1497 
Q 2881 1984 2565 2268 
Q 2250 2553 1709 2553 
Q 1456 2553 1204 2497 
Q 953 2441 691 2322 
L 691 4666 
z
" transform="scale(0.015625)"/>
      </defs>
      <use xlink:href="#DejaVuSans-30"/>
      <use xlink:href="#DejaVuSans-2e" transform="translate(63.623047 0)"/>
      <use xlink:href="#DejaVuSans-35" transform="translate(95.410156 0)"/>
     </g>
    </g>
   </g>
   <g id="xtick_19">
    <g id="line2d_22">
     <path d="M 320.065474 161.288536 
L 324.623082 162.204528 
" style="fill: none; stroke: #000000; stroke-width: 0.8; stroke-linecap: square"/>
    </g>
    <g id="text_21">
     <!-- 0.6 -->
     <g transform="translate(333.854521 165.823442) scale(0.08 -0.08)">
      <use xlink:href="#DejaVuSans-30"/>
      <use xlink:href="#DejaVuSans-2e" transform="translate(63.623047 0)"/>
      <use xlink:href="#DejaVuSans-36" transform="translate(95.410156 0)"/>
     </g>
    </g>
   </g>
   <g id="xtick_20">
    <g id="line2d_23">
     <path d="M 320.585544 144.911479 
L 325.16054 145.809431 
" style="fill: none; stroke: #000000; stroke-width: 0.8; stroke-linecap: square"/>
    </g>
    <g id="text_22">
     <!-- 0.7 -->
     <g transform="translate(334.447057 149.47681) scale(0.08 -0.08)">
      <defs>
       <path id="DejaVuSans-37" d="M 525 4666 
L 3525 4666 
L 3525 4397 
L 1831 0 
L 1172 0 
L 2766 4134 
L 525 4134 
L 525 4666 
z
" transform="scale(0.015625)"/>
      </defs>
      <use xlink:href="#DejaVuSans-30"/>
      <use xlink:href="#DejaVuSans-2e" transform="translate(63.623047 0)"/>
      <use xlink:href="#DejaVuSans-37" transform="translate(95.410156 0)"/>
     </g>
    </g>
   </g>
   <g id="xtick_21">
    <g id="line2d_24">
     <path d="M 321.109437 128.414063 
L 325.701953 129.293684 
" style="fill: none; stroke: #000000; stroke-width: 0.8; stroke-linecap: square"/>
    </g>
    <g id="text_23">
     <!-- 0.8 -->
     <g transform="translate(335.043938 133.010308) scale(0.08 -0.08)">
      <use xlink:href="#DejaVuSans-30"/>
      <use xlink:href="#DejaVuSans-2e" transform="translate(63.623047 0)"/>
      <use xlink:href="#DejaVuSans-38" transform="translate(95.410156 0)"/>
     </g>
    </g>
   </g>
   <g id="xtick_22">
    <g id="line2d_25">
     <path d="M 321.637193 111.794956 
L 326.247365 112.655951 
" style="fill: none; stroke: #000000; stroke-width: 0.8; stroke-linecap: square"/>
    </g>
    <g id="text_24">
     <!-- 0.9 -->
     <g transform="translate(335.645213 116.422613) scale(0.08 -0.08)">
      <defs>
       <path id="DejaVuSans-39" d="M 703 97 
L 703 672 
Q 941 559 1184 500 
Q 1428 441 1663 441 
Q 2288 441 2617 861 
Q 2947 1281 2994 2138 
Q 2813 1869 2534 1725 
Q 2256 1581 1919 1581 
Q 1219 1581 811 2004 
Q 403 2428 403 3163 
Q 403 3881 828 4315 
Q 1253 4750 1959 4750 
Q 2769 4750 3195 4129 
Q 3622 3509 3622 2328 
Q 3622 1225 3098 567 
Q 2575 -91 1691 -91 
Q 1453 -91 1209 -44 
Q 966 3 703 97 
z
M 1959 2075 
Q 2384 2075 2632 2365 
Q 2881 2656 2881 3163 
Q 2881 3666 2632 3958 
Q 2384 4250 1959 4250 
Q 1534 4250 1286 3958 
Q 1038 3666 1038 3163 
Q 1038 2656 1286 2365 
Q 1534 2075 1959 2075 
z
" transform="scale(0.015625)"/>
      </defs>
      <use xlink:href="#DejaVuSans-30"/>
      <use xlink:href="#DejaVuSans-2e" transform="translate(63.623047 0)"/>
      <use xlink:href="#DejaVuSans-39" transform="translate(95.410156 0)"/>
     </g>
    </g>
   </g>
   <g id="xtick_23">
    <g id="line2d_26">
     <path d="M 322.168858 95.052807 
L 326.79682 95.894875 
" style="fill: none; stroke: #000000; stroke-width: 0.8; stroke-linecap: square"/>
    </g>
    <g id="text_25">
     <!-- 1.0 -->
     <g transform="translate(336.250929 99.712382) scale(0.08 -0.08)">
      <use xlink:href="#DejaVuSans-31"/>
      <use xlink:href="#DejaVuSans-2e" transform="translate(63.623047 0)"/>
      <use xlink:href="#DejaVuSans-30" transform="translate(95.410156 0)"/>
     </g>
    </g>
   </g>
   <g id="text_26">
    <!-- $\alpha$ -->
    <g transform="translate(364.017836 168.742471) rotate(-88.161577) scale(0.09 -0.09)">
     <defs>
      <path id="DejaVuSans-Oblique-3b1" d="M 2619 1628 
L 2622 2350 
Q 2625 3088 2069 3091 
Q 1653 3094 1394 2747 
Q 1069 2319 959 1747 
Q 825 1059 994 731 
Q 1169 397 1547 397 
Q 1966 397 2319 1063 
L 2619 1628 
z
M 2166 3578 
Q 3141 3594 3128 2584 
Q 3128 2584 3616 3500 
L 4128 3500 
L 3119 1603 
L 3109 919 
Q 3109 766 3194 638 
Q 3291 488 3391 488 
L 3669 488 
L 3575 0 
L 3228 0 
Q 2934 0 2722 263 
Q 2622 394 2619 669 
Q 2416 334 2066 50 
Q 1900 -81 1453 -78 
Q 722 -72 456 397 
Q 184 884 353 1747 
Q 534 2675 1009 3097 
Q 1544 3569 2166 3578 
z
" transform="scale(0.015625)"/>
     </defs>
     <use xlink:href="#DejaVuSans-Oblique-3b1" transform="translate(0 0.84375)"/>
    </g>
   </g>
  </g>
  <g id="axes_1">
   <g id="line2d_27">
    <path d="M 72.821989 131.740889 
L 120.810857 141.68283 
L 133.120791 134.527874 
L 85.449599 124.791355 
L 72.821989 131.740889 
" clip-path="url(#pc9decada08)" style="fill: none; stroke: #1f77b4; stroke-opacity: 0.95; stroke-width: 0.9; stroke-linecap: square"/>
   </g>
   <g id="line2d_28">
    <path d="M 120.810857 141.68283 
L 137.123272 145.062302 
L 149.321921 137.836846 
L 133.120791 134.527874 
L 120.810857 141.68283 
" clip-path="url(#pc9decada08)" style="fill: none; stroke: #2ca02c; stroke-opacity: 0.95; stroke-width: 0.9; stroke-linecap: square"/>
   </g>
   <g id="line2d_29">
    <path d="M 165.193382 128.435924 
L 230.989558 141.625751 
L 307.721197 92.424024 
L 245.198141 81.047816 
L 165.193382 128.435924 
" clip-path="url(#pc9decada08)" style="fill: none; stroke: #ff7f0e; stroke-opacity: 0.95; stroke-width: 0.9; stroke-linecap: square"/>
   </g>
   <g id="line2d_30">
    <path d="M 106.633362 259.405171 
L 154.264697 271.021219 
" clip-path="url(#pc9decada08)" style="fill: none; stroke: #9467bd; stroke-opacity: 0.95; stroke-width: 0.9; stroke-linecap: square"/>
   </g>
   <g id="line2d_31">
    <path d="M 154.264697 271.021219 
L 181.312997 251.780162 
" clip-path="url(#pc9decada08)" style="fill: none; stroke: #9467bd; stroke-opacity: 0.95; stroke-width: 0.9; stroke-linecap: square"/>
   </g>
   <g id="line2d_32">
    <path d="M 181.312997 251.780162 
L 134.415445 240.703458 
" clip-path="url(#pc9decada08)" style="fill: none; stroke: #9467bd; stroke-opacity: 0.95; stroke-width: 0.9; stroke-linecap: square"/>
   </g>
   <g id="line2d_33">
    <path d="M 134.415445 240.703458 
L 106.633362 259.405171 
" clip-path="url(#pc9decada08)" style="fill: none; stroke: #9467bd; stroke-opacity: 0.95; stroke-width: 0.9; stroke-linecap: square"/>
   </g>
   <g id="line2d_34">
    <path d="M 106.079927 225.484576 
L 154.077867 236.696675 
" clip-path="url(#pc9decada08)" style="fill: none; stroke: #9467bd; stroke-opacity: 0.95; stroke-width: 0.9; stroke-linecap: square"/>
   </g>
   <g id="line2d_35">
    <path d="M 154.077867 236.696675 
L 181.338321 218.126098 
" clip-path="url(#pc9decada08)" style="fill: none; stroke: #9467bd; stroke-opacity: 0.95; stroke-width: 0.9; stroke-linecap: square"/>
   </g>
   <g id="line2d_36">
    <path d="M 181.338321 218.126098 
L 134.085354 207.438509 
" clip-path="url(#pc9decada08)" style="fill: none; stroke: #9467bd; stroke-opacity: 0.95; stroke-width: 0.9; stroke-linecap: square"/>
   </g>
   <g id="line2d_37">
    <path d="M 134.085354 207.438509 
L 106.079927 225.484576 
" clip-path="url(#pc9decada08)" style="fill: none; stroke: #9467bd; stroke-opacity: 0.95; stroke-width: 0.9; stroke-linecap: square"/>
   </g>
   <g id="line2d_38">
    <path d="M 106.633362 259.405171 
L 106.079927 225.484576 
" clip-path="url(#pc9decada08)" style="fill: none; stroke: #9467bd; stroke-opacity: 0.95; stroke-width: 0.9; stroke-linecap: square"/>
   </g>
   <g id="line2d_39">
    <path d="M 154.264697 271.021219 
L 154.077867 236.696675 
" clip-path="url(#pc9decada08)" style="fill: none; stroke: #9467bd; stroke-opacity: 0.95; stroke-width: 0.9; stroke-linecap: square"/>
   </g>
   <g id="line2d_40">
    <path d="M 181.312997 251.780162 
L 181.338321 218.126098 
" clip-path="url(#pc9decada08)" style="fill: none; stroke: #9467bd; stroke-opacity: 0.95; stroke-width: 0.9; stroke-linecap: square"/>
   </g>
   <g id="line2d_41">
    <path d="M 134.415445 240.703458 
L 134.085354 207.438509 
" clip-path="url(#pc9decada08)" style="fill: none; stroke: #9467bd; stroke-opacity: 0.95; stroke-width: 0.9; stroke-linecap: square"/>
   </g>
   <g id="line2d_42"/>
   <g id="line2d_43"/>
   <g id="line2d_44"/>
   <g id="line2d_45"/>
   <g id="line2d_46"/>
   <g id="Path3DCollection_1">
    <defs>
     <path id="md734080021" d="M 0 2.44949 
C 0.649612 2.44949 1.272706 2.191396 1.732051 1.732051 
C 2.191396 1.272706 2.44949 0.649612 2.44949 0 
C 2.44949 -0.649612 2.191396 -1.272706 1.732051 -1.732051 
C 1.272706 -2.191396 0.649612 -2.44949 0 -2.44949 
C -0.649612 -2.44949 -1.272706 -2.191396 -1.732051 -1.732051 
C -2.191396 -1.272706 -2.44949 -0.649612 -2.44949 0 
C -2.44949 0.649612 -2.191396 1.272706 -1.732051 1.732051 
C -1.272706 2.191396 -0.649612 2.44949 0 2.44949 
z
" style="stroke: #ff7f0e"/>
    </defs>
    <g clip-path="url(#pc9decada08)">
     <use xlink:href="#md734080021" x="289.025747" y="203.370407" style="fill: #ff7f0e; stroke: #ff7f0e"/>
    </g>
   </g>
   <g id="text_27">
    <!-- F7 — Regiones y frontera $\rho^{*}$ en $(\rho, s_{\mathrm{in}}, \alpha)$ -->
    <g transform="translate(72.17 16.3) scale(0.1 -0.1)">
     <defs>
      <path id="DejaVuSans-46" d="M 628 4666 
L 3309 4666 
L 3309 4134 
L 1259 4134 
L 1259 2759 
L 3109 2759 
L 3109 2228 
L 1259 2228 
L 1259 0 
L 628 0 
L 628 4666 
z
" transform="scale(0.015625)"/>
      <path id="DejaVuSans-20" transform="scale(0.015625)"/>
      <path id="DejaVuSansDisplay-2014" d="M 313 1978 
L 6088 1978 
L 6088 1528 
L 313 1528 
L 313 1978 
z
" transform="scale(0.015625)"/>
      <path id="DejaVuSans-52" d="M 2841 2188 
Q 3044 2119 3236 1894 
Q 3428 1669 3622 1275 
L 4263 0 
L 3584 0 
L 2988 1197 
Q 2756 1666 2539 1819 
Q 2322 1972 1947 1972 
L 1259 1972 
L 1259 0 
L 628 0 
L 628 4666 
L 2053 4666 
Q 2853 4666 3247 4331 
Q 3641 3997 3641 3322 
Q 3641 2881 3436 2590 
Q 3231 2300 2841 2188 
z
M 1259 4147 
L 1259 2491 
L 2053 2491 
Q 2509 2491 2742 2702 
Q 2975 2913 2975 3322 
Q 2975 3731 2742 3939 
Q 2509 4147 2053 4147 
L 1259 4147 
z
" transform="scale(0.015625)"/>
      <path id="DejaVuSans-65" d="M 3597 1894 
L 3597 1613 
L 953 1613 
Q 991 1019 1311 708 
Q 1631 397 2203 397 
Q 2534 397 2845 478 
Q 3156 559 3463 722 
L 3463 178 
Q 3153 47 2828 -22 
Q 2503 -91 2169 -91 
Q 1331 -91 842 396 
Q 353 884 353 1716 
Q 353 2575 817 3079 
Q 1281 3584 2069 3584 
Q 2775 3584 3186 3129 
Q 3597 2675 3597 1894 
z
M 3022 2063 
Q 3016 2534 2758 2815 
Q 2500 3097 2075 3097 
Q 1594 3097 1305 2825 
Q 1016 2553 972 2059 
L 3022 2063 
z
" transform="scale(0.015625)"/>
      <path id="DejaVuSans-67" d="M 2906 1791 
Q 2906 2416 2648 2759 
Q 2391 3103 1925 3103 
Q 1463 3103 1205 2759 
Q 947 2416 947 1791 
Q 947 1169 1205 825 
Q 1463 481 1925 481 
Q 2391 481 2648 825 
Q 2906 1169 2906 1791 
z
M 3481 434 
Q 3481 -459 3084 -895 
Q 2688 -1331 1869 -1331 
Q 1566 -1331 1297 -1286 
Q 1028 -1241 775 -1147 
L 775 -588 
Q 1028 -725 1275 -790 
Q 1522 -856 1778 -856 
Q 2344 -856 2625 -561 
Q 2906 -266 2906 331 
L 2906 616 
Q 2728 306 2450 153 
Q 2172 0 1784 0 
Q 1141 0 747 490 
Q 353 981 353 1791 
Q 353 2603 747 3093 
Q 1141 3584 1784 3584 
Q 2172 3584 2450 3431 
Q 2728 3278 2906 2969 
L 2906 3500 
L 3481 3500 
L 3481 434 
z
" transform="scale(0.015625)"/>
      <path id="DejaVuSans-6f" d="M 1959 3097 
Q 1497 3097 1228 2736 
Q 959 2375 959 1747 
Q 959 1119 1226 758 
Q 1494 397 1959 397 
Q 2419 397 2687 759 
Q 2956 1122 2956 1747 
Q 2956 2369 2687 2733 
Q 2419 3097 1959 3097 
z
M 1959 3584 
Q 2709 3584 3137 3096 
Q 3566 2609 3566 1747 
Q 3566 888 3137 398 
Q 2709 -91 1959 -91 
Q 1206 -91 779 398 
Q 353 888 353 1747 
Q 353 2609 779 3096 
Q 1206 3584 1959 3584 
z
" transform="scale(0.015625)"/>
      <path id="DejaVuSans-73" d="M 2834 3397 
L 2834 2853 
Q 2591 2978 2328 3040 
Q 2066 3103 1784 3103 
Q 1356 3103 1142 2972 
Q 928 2841 928 2578 
Q 928 2378 1081 2264 
Q 1234 2150 1697 2047 
L 1894 2003 
Q 2506 1872 2764 1633 
Q 3022 1394 3022 966 
Q 3022 478 2636 193 
Q 2250 -91 1575 -91 
Q 1294 -91 989 -36 
Q 684 19 347 128 
L 347 722 
Q 666 556 975 473 
Q 1284 391 1588 391 
Q 1994 391 2212 530 
Q 2431 669 2431 922 
Q 2431 1156 2273 1281 
Q 2116 1406 1581 1522 
L 1381 1569 
Q 847 1681 609 1914 
Q 372 2147 372 2553 
Q 372 3047 722 3315 
Q 1072 3584 1716 3584 
Q 2034 3584 2315 3537 
Q 2597 3491 2834 3397 
z
" transform="scale(0.015625)"/>
      <path id="DejaVuSans-79" d="M 2059 -325 
Q 1816 -950 1584 -1140 
Q 1353 -1331 966 -1331 
L 506 -1331 
L 506 -850 
L 844 -850 
Q 1081 -850 1212 -737 
Q 1344 -625 1503 -206 
L 1606 56 
L 191 3500 
L 800 3500 
L 1894 763 
L 2988 3500 
L 3597 3500 
L 2059 -325 
z
" transform="scale(0.015625)"/>
      <path id="DejaVuSans-66" d="M 2375 4863 
L 2375 4384 
L 1825 4384 
Q 1516 4384 1395 4259 
Q 1275 4134 1275 3809 
L 1275 3500 
L 2222 3500 
L 2222 3053 
L 1275 3053 
L 1275 0 
L 697 0 
L 697 3053 
L 147 3053 
L 147 3500 
L 697 3500 
L 697 3744 
Q 697 4328 969 4595 
Q 1241 4863 1831 4863 
L 2375 4863 
z
" transform="scale(0.015625)"/>
      <path id="DejaVuSans-72" d="M 2631 2963 
Q 2534 3019 2420 3045 
Q 2306 3072 2169 3072 
Q 1681 3072 1420 2755 
Q 1159 2438 1159 1844 
L 1159 0 
L 581 0 
L 581 3500 
L 1159 3500 
L 1159 2956 
Q 1341 3275 1631 3429 
Q 1922 3584 2338 3584 
Q 2397 3584 2469 3576 
Q 2541 3569 2628 3553 
L 2631 2963 
z
" transform="scale(0.015625)"/>
      <path id="DejaVuSans-74" d="M 1172 4494 
L 1172 3500 
L 2356 3500 
L 2356 3053 
L 1172 3053 
L 1172 1153 
Q 1172 725 1289 603 
Q 1406 481 1766 481 
L 2356 481 
L 2356 0 
L 1766 0 
Q 1100 0 847 248 
Q 594 497 594 1153 
L 594 3053 
L 172 3053 
L 172 3500 
L 594 3500 
L 594 4494 
L 1172 4494 
z
" transform="scale(0.015625)"/>
      <path id="DejaVuSans-61" d="M 2194 1759 
Q 1497 1759 1228 1600 
Q 959 1441 959 1056 
Q 959 750 1161 570 
Q 1363 391 1709 391 
Q 2188 391 2477 730 
Q 2766 1069 2766 1631 
L 2766 1759 
L 2194 1759 
z
M 3341 1997 
L 3341 0 
L 2766 0 
L 2766 531 
Q 2569 213 2275 61 
Q 1981 -91 1556 -91 
Q 1019 -91 701 211 
Q 384 513 384 1019 
Q 384 1609 779 1909 
Q 1175 2209 1959 2209 
L 2766 2209 
L 2766 2266 
Q 2766 2663 2505 2880 
Q 2244 3097 1772 3097 
Q 1472 3097 1187 3025 
Q 903 2953 641 2809 
L 641 3341 
Q 956 3463 1253 3523 
Q 1550 3584 1831 3584 
Q 2591 3584 2966 3190 
Q 3341 2797 3341 1997 
z
" transform="scale(0.015625)"/>
      <path id="DejaVuSans-2a" d="M 3009 3897 
L 1888 3291 
L 3009 2681 
L 2828 2375 
L 1778 3009 
L 1778 1831 
L 1422 1831 
L 1422 3009 
L 372 2375 
L 191 2681 
L 1313 3291 
L 191 3897 
L 372 4206 
L 1422 3572 
L 1422 4750 
L 1778 4750 
L 1778 3572 
L 2828 4206 
L 3009 3897 
z
" transform="scale(0.015625)"/>
      <path id="DejaVuSans-28" d="M 1984 4856 
Q 1566 4138 1362 3434 
Q 1159 2731 1159 2009 
Q 1159 1288 1364 580 
Q 1569 -128 1984 -844 
L 1484 -844 
Q 1016 -109 783 600 
Q 550 1309 550 2009 
Q 550 2706 781 3412 
Q 1013 4119 1484 4856 
L 1984 4856 
z
" transform="scale(0.015625)"/>
      <path id="DejaVuSans-2c" d="M 750 794 
L 1409 794 
L 1409 256 
L 897 -744 
L 494 -744 
L 750 256 
L 750 794 
z
" transform="scale(0.015625)"/>
      <path id="DejaVuSans-29" d="M 513 4856 
L 1013 4856 
Q 1481 4119 1714 3412 
Q 1947 2706 1947 2009 
Q 1947 1309 1714 600 
Q 1481 -109 1013 -844 
L 513 -844 
Q 928 -128 1133 580 
Q 1338 1288 1338 2009 
Q 1338 2731 1133 3434 
Q 928 4138 513 4856 
z
" transform="scale(0.015625)"/>
     </defs>
     <use xlink:href="#DejaVuSans-46" transform="translate(0 0.765625)"/>
     <use xlink:href="#DejaVuSans-37" transform="translate(57.519531 0.765625)"/>
     <use xlink:href="#DejaVuSans-20" transform="translate(121.142578 0.765625)"/>
     <use xlink:href="#DejaVuSansDisplay-2014" transform="translate(152.929688 0.765625)"/>
     <use xlink:href="#DejaVuSans-20" transform="translate(252.929688 0.765625)"/>
     <use xlink:href="#DejaVuSans-52" transform="translate(284.716797 0.765625)"/>
     <use xlink:href="#DejaVuSans-65" transform="translate(354.199219 0.765625)"/>
     <use xlink:href="#DejaVuSans-67" transform="translate(415.722656 0.765625)"/>
     <use xlink:href="#DejaVuSans-69" transform="translate(479.199219 0.765625)"/>
     <use xlink:href="#DejaVuSans-6f" transform="translate(506.982422 0.765625)"/>
     <use xlink:href="#DejaVuSans-6e" transform="translate(568.164062 0.765625)"/>
     <use xlink:href="#DejaVuSans-65" transform="translate(631.542969 0.765625)"/>
     <use xlink:href="#DejaVuSans-73" transform="translate(693.066406 0.765625)"/>
     <use xlink:href="#DejaVuSans-20" transform="translate(745.166016 0.765625)"/>
     <use xlink:href="#DejaVuSans-79" transform="translate(776.953125 0.765625)"/>
     <use xlink:href="#DejaVuSans-20" transform="translate(836.132812 0.765625)"/>
     <use xlink:href="#DejaVuSans-66" transform="translate(867.919922 0.765625)"/>
     <use xlink:href="#DejaVuSans-72" transform="translate(903.125 0.765625)"/>
     <use xlink:href="#DejaVuSans-6f" transform="translate(944.238281 0.765625)"/>
     <use xlink:href="#DejaVuSans-6e" transform="translate(1005.419922 0.765625)"/>
     <use xlink:href="#DejaVuSans-74" transform="translate(1068.798828 0.765625)"/>
     <use xlink:href="#DejaVuSans-65" transform="translate(1108.007812 0.765625)"/>
     <use xlink:href="#DejaVuSans-72" transform="translate(1169.53125 0.765625)"/>
     <use xlink:href="#DejaVuSans-61" transform="translate(1210.644531 0.765625)"/>
     <use xlink:href="#DejaVuSans-20" transform="translate(1271.923828 0.765625)"/>
     <use xlink:href="#DejaVuSans-Oblique-3c1" transform="translate(1303.710938 0.765625)"/>
     <use xlink:href="#DejaVuSans-2a" transform="translate(1371.837396 39.046875) scale(0.7)"/>
     <use xlink:href="#DejaVuSans-20" transform="translate(1409.571771 0.765625)"/>
     <use xlink:href="#DejaVuSans-65" transform="translate(1441.35888 0.765625)"/>
     <use xlink:href="#DejaVuSans-6e" transform="translate(1502.882318 0.765625)"/>
     <use xlink:href="#DejaVuSans-20" transform="translate(1566.261224 0.765625)"/>
     <use xlink:href="#DejaVuSans-28" transform="translate(1598.048333 0.765625)"/>
     <use xlink:href="#DejaVuSans-Oblique-3c1" transform="translate(1637.062005 0.765625)"/>
     <use xlink:href="#DejaVuSans-2c" transform="translate(1700.538568 0.765625)"/>
     <use xlink:href="#DejaVuSans-Oblique-73" transform="translate(1751.808099 0.765625)"/>
     <use xlink:href="#DejaVuSans-69" transform="translate(1803.907708 -15.640625) scale(0.7)"/>
     <use xlink:href="#DejaVuSans-6e" transform="translate(1823.355951 -15.640625) scale(0.7)"/>
     <use xlink:href="#DejaVuSans-2c" transform="translate(1870.45556 0.765625)"/>
     <use xlink:href="#DejaVuSans-Oblique-3b1" transform="translate(1921.725091 0.765625)"/>
     <use xlink:href="#DejaVuSans-29" transform="translate(1987.64306 0.765625)"/>
    </g>
   </g>
   <g id="Path3DCollection_2">
    <defs>
     <path id="C0_0_bbb3fff6da" d="M 0 2.915476 
C 0.773193 2.915476 1.514823 2.608283 2.061553 2.061553 
C 2.608283 1.514823 2.915476 0.773193 2.915476 -0 
C 2.915476 -0.773193 2.608283 -1.514823 2.061553 -2.061553 
C 1.514823 -2.608283 0.773193 -2.915476 0 -2.915476 
C -0.773193 -2.915476 -1.514823 -2.608283 -2.061553 -2.061553 
C -2.608283 -1.514823 -2.915476 -0.773193 -2.915476 0 
C -2.915476 0.773193 -2.608283 1.514823 -2.061553 2.061553 
C -1.514823 2.608283 -0.773193 2.915476 0 2.915476 
z
"/>
    </defs>
    <g clip-path="url(#pc9decada08)">
     <use xlink:href="#C0_0_bbb3fff6da" x="280.627993" y="233.148552" style="fill: none; stroke: #1f77b4; stroke-width: 1.2"/>
    </g>
    <g clip-path="url(#pc9decada08)">
     <use xlink:href="#C0_0_bbb3fff6da" x="210.458852" y="263.308657" style="fill: none; stroke: #1f77b4; stroke-width: 1.2"/>
    </g>
    <g clip-path="url(#pc9decada08)">
     <use xlink:href="#C0_0_bbb3fff6da" x="165.627702" y="281.071974" style="fill: none; stroke: #1f77b4; stroke-width: 1.2"/>
    </g>
    <g clip-path="url(#pc9decada08)">
     <use xlink:href="#C0_0_bbb3fff6da" x="150.307022" y="292.215904" style="fill: none; stroke: #1f77b4; stroke-width: 1.2"/>
    </g>
    <g clip-path="url(#pc9decada08)">
     <use xlink:href="#C0_0_bbb3fff6da" x="134.61082" y="295.909662" style="fill: none; stroke: #1f77b4; stroke-width: 1.2"/>
    </g>
    <g clip-path="url(#pc9decada08)">
     <use xlink:href="#C0_0_bbb3fff6da" x="130.644809" y="298.768115" style="fill: none; stroke: #1f77b4; stroke-width: 1.2"/>
    </g>
   </g>
   <g id="Path3DCollection_3">
    <defs>
     <path id="C1_0_8b374de36c" d="M 0 2.44949 
C 0.649612 2.44949 1.272706 2.191396 1.732051 1.732051 
C 2.191396 1.272706 2.44949 0.649612 2.44949 -0 
C 2.44949 -0.649612 2.191396 -1.272706 1.732051 -1.732051 
C 1.272706 -2.191396 0.649612 -2.44949 0 -2.44949 
C -0.649612 -2.44949 -1.272706 -2.191396 -1.732051 -1.732051 
C -2.191396 -1.272706 -2.44949 -0.649612 -2.44949 0 
C -2.44949 0.649612 -2.191396 1.272706 -1.732051 1.732051 
C -1.272706 2.191396 -0.649612 2.44949 0 2.44949 
z
"/>
    </defs>
    <g clip-path="url(#pc9decada08)">
     <use xlink:href="#C1_0_8b374de36c" x="321.061327" y="177.857526" style="fill: #2ca02c; fill-opacity: 0.3; stroke: #2ca02c; stroke-opacity: 0.3"/>
    </g>
    <g clip-path="url(#pc9decada08)">
     <use xlink:href="#C1_0_8b374de36c" x="242.614409" y="204.870294" style="fill: #2ca02c; fill-opacity: 0.749362; stroke: #2ca02c; stroke-opacity: 0.749362"/>
    </g>
    <g clip-path="url(#pc9decada08)">
     <use xlink:href="#C1_0_8b374de36c" x="189.345098" y="219.937056" style="fill: #2ca02c; stroke: #2ca02c"/>
    </g>
   </g>
   <g id="legend_1">
    <g id="patch_6">
     <path d="M 12.1 89.548125 
L 65.86 89.548125 
Q 67.26 89.548125 67.26 88.148125 
L 67.26 27.2 
Q 67.26 25.8 65.86 25.8 
L 12.1 25.8 
Q 10.7 25.8 10.7 27.2 
L 10.7 88.148125 
Q 10.7 89.548125 12.1 89.548125 
z
" style="fill: #ffffff; opacity: 0.8; stroke: #cccccc; stroke-linejoin: miter"/>
    </g>
    <g id="line2d_47">
     <path d="M 13.5 31.468906 
L 20.5 31.468906 
L 27.5 31.468906 
" style="fill: none; stroke: #1f77b4; stroke-width: 1.8; stroke-linecap: square"/>
    </g>
    <g id="text_28">
     <!-- $\alpha=0.1$ -->
     <g transform="translate(33.1 33.918906) scale(0.07 -0.07)">
      <defs>
       <path id="DejaVuSans-3d" d="M 678 2906 
L 4684 2906 
L 4684 2381 
L 678 2381 
L 678 2906 
z
M 678 1631 
L 4684 1631 
L 4684 1100 
L 678 1100 
L 678 1631 
z
" transform="scale(0.015625)"/>
      </defs>
      <use xlink:href="#DejaVuSans-Oblique-3b1" transform="translate(0 0.78125)"/>
      <use xlink:href="#DejaVuSans-3d" transform="translate(85.400391 0.78125)"/>
      <use xlink:href="#DejaVuSans-30" transform="translate(188.671875 0.78125)"/>
      <use xlink:href="#DejaVuSans-2e" transform="translate(252.294922 0.78125)"/>
      <use xlink:href="#DejaVuSans-31" transform="translate(284.082031 0.78125)"/>
     </g>
    </g>
    <g id="Path3DCollection_4">
     <path d="M 20.5 45.27157 
C 21.273193 45.27157 22.014823 44.964377 22.561553 44.417647 
C 23.108283 43.870916 23.415476 43.129287 23.415476 42.356094 
C 23.415476 41.5829 23.108283 40.841271 22.561553 40.294541 
C 22.014823 39.747811 21.273193 39.440618 20.5 39.440618 
C 19.726807 39.440618 18.985177 39.747811 18.438447 40.294541 
C 17.891717 40.841271 17.584524 41.5829 17.584524 42.356094 
C 17.584524 43.129287 17.891717 43.870916 18.438447 44.417647 
C 18.985177 44.964377 19.726807 45.27157 20.5 45.27157 
L 20.5 45.27157 
z
" style="fill: none; stroke: #1f77b4; stroke-width: 1.2"/>
    </g>
    <g id="text_29">
     <!-- truncado -->
     <g transform="translate(33.1 44.193594) scale(0.07 -0.07)">
      <defs>
       <path id="DejaVuSans-75" d="M 544 1381 
L 544 3500 
L 1119 3500 
L 1119 1403 
Q 1119 906 1312 657 
Q 1506 409 1894 409 
Q 2359 409 2629 706 
Q 2900 1003 2900 1516 
L 2900 3500 
L 3475 3500 
L 3475 0 
L 2900 0 
L 2900 538 
Q 2691 219 2414 64 
Q 2138 -91 1772 -91 
Q 1169 -91 856 284 
Q 544 659 544 1381 
z
M 1991 3584 
L 1991 3584 
z
" transform="scale(0.015625)"/>
       <path id="DejaVuSans-63" d="M 3122 3366 
L 3122 2828 
Q 2878 2963 2633 3030 
Q 2388 3097 2138 3097 
Q 1578 3097 1268 2742 
Q 959 2388 959 1747 
Q 959 1106 1268 751 
Q 1578 397 2138 397 
Q 2388 397 2633 464 
Q 2878 531 3122 666 
L 3122 134 
Q 2881 22 2623 -34 
Q 2366 -91 2075 -91 
Q 1284 -91 818 406 
Q 353 903 353 1747 
Q 353 2603 823 3093 
Q 1294 3584 2113 3584 
Q 2378 3584 2631 3529 
Q 2884 3475 3122 3366 
z
" transform="scale(0.015625)"/>
       <path id="DejaVuSans-64" d="M 2906 2969 
L 2906 4863 
L 3481 4863 
L 3481 0 
L 2906 0 
L 2906 525 
Q 2725 213 2448 61 
Q 2172 -91 1784 -91 
Q 1150 -91 751 415 
Q 353 922 353 1747 
Q 353 2572 751 3078 
Q 1150 3584 1784 3584 
Q 2172 3584 2448 3432 
Q 2725 3281 2906 2969 
z
M 947 1747 
Q 947 1113 1208 752 
Q 1469 391 1925 391 
Q 2381 391 2643 752 
Q 2906 1113 2906 1747 
Q 2906 2381 2643 2742 
Q 2381 3103 1925 3103 
Q 1469 3103 1208 2742 
Q 947 2381 947 1747 
z
" transform="scale(0.015625)"/>
      </defs>
      <use xlink:href="#DejaVuSans-74"/>
      <use xlink:href="#DejaVuSans-72" transform="translate(39.208984 0)"/>
      <use xlink:href="#DejaVuSans-75" transform="translate(80.322266 0)"/>
      <use xlink:href="#DejaVuSans-6e" transform="translate(143.701172 0)"/>
      <use xlink:href="#DejaVuSans-63" transform="translate(207.080078 0)"/>
      <use xlink:href="#DejaVuSans-61" transform="translate(262.060547 0)"/>
      <use xlink:href="#DejaVuSans-64" transform="translate(323.339844 0)"/>
      <use xlink:href="#DejaVuSans-6f" transform="translate(386.816406 0)"/>
     </g>
    </g>
    <g id="line2d_48">
     <path d="M 13.5 52.018281 
L 20.5 52.018281 
L 27.5 52.018281 
" style="fill: none; stroke: #ff7f0e; stroke-width: 1.8; stroke-linecap: square"/>
    </g>
    <g id="text_30">
     <!-- $\alpha=0.3$ -->
     <g transform="translate(33.1 54.468281) scale(0.07 -0.07)">
      <use xlink:href="#DejaVuSans-Oblique-3b1" transform="translate(0 0.78125)"/>
      <use xlink:href="#DejaVuSans-3d" transform="translate(85.400391 0.78125)"/>
      <use xlink:href="#DejaVuSans-30" transform="translate(188.671875 0.78125)"/>
      <use xlink:href="#DejaVuSans-2e" transform="translate(252.294922 0.78125)"/>
      <use xlink:href="#DejaVuSans-33" transform="translate(284.082031 0.78125)"/>
     </g>
    </g>
    <g id="line2d_49">
     <path d="M 13.5 62.292969 
L 20.5 62.292969 
L 27.5 62.292969 
" style="fill: none; stroke: #2ca02c; stroke-width: 1.8; stroke-linecap: square"/>
    </g>
    <g id="text_31">
     <!-- $\alpha=0.5$ -->
     <g transform="translate(33.1 64.742969) scale(0.07 -0.07)">
      <use xlink:href="#DejaVuSans-Oblique-3b1" transform="translate(0 0.78125)"/>
      <use xlink:href="#DejaVuSans-3d" transform="translate(85.400391 0.78125)"/>
      <use xlink:href="#DejaVuSans-30" transform="translate(188.671875 0.78125)"/>
      <use xlink:href="#DejaVuSans-2e" transform="translate(252.294922 0.78125)"/>
      <use xlink:href="#DejaVuSans-35" transform="translate(284.082031 0.78125)"/>
     </g>
    </g>
    <g id="line2d_50">
     <path d="M 13.5 72.567656 
L 20.5 72.567656 
L 27.5 72.567656 
" style="fill: none; stroke: #d62728; stroke-width: 1.8; stroke-linecap: square"/>
    </g>
    <g id="text_32">
     <!-- $\alpha=0.7$ -->
     <g transform="translate(33.1 75.017656) scale(0.07 -0.07)">
      <use xlink:href="#DejaVuSans-Oblique-3b1" transform="translate(0 0.78125)"/>
      <use xlink:href="#DejaVuSans-3d" transform="translate(85.400391 0.78125)"/>
      <use xlink:href="#DejaVuSans-30" transform="translate(188.671875 0.78125)"/>
      <use xlink:href="#DejaVuSans-2e" transform="translate(252.294922 0.78125)"/>
      <use xlink:href="#DejaVuSans-37" transform="translate(276.332031 0.78125)"/>
     </g>
    </g>
    <g id="line2d_51">
     <path d="M 13.5 82.842344 
L 20.5 82.842344 
L 27.5 82.842344 
" style="fill: none; stroke: #9467bd; stroke-width: 1.8; stroke-linecap: square"/>
    </g>
    <g id="text_33">
     <!-- $\alpha=1$ -->
     <g transform="translate(33.1 85.292344) scale(0.07 -0.07)">
      <use xlink:href="#DejaVuSans-Oblique-3b1" transform="translate(0 0.09375)"/>
      <use xlink:href="#DejaVuSans-3d" transform="translate(85.400391 0.09375)"/>
      <use xlink:href="#DejaVuSans-31" transform="translate(188.671875 0.09375)"/>
     </g>
    </g>
   </g>
   <g id="Path3DCollection_5">
    <defs>
     <path id="C2_0_7f3e70c291" d="M 0 2.915476 
C 0.773193 2.915476 1.514823 2.608283 2.061553 2.061553 
C 2.608283 1.514823 2.915476 0.773193 2.915476 -0 
C 2.915476 -0.773193 2.608283 -1.514823 2.061553 -2.061553 
C 1.514823 -2.608283 0.773193 -2.915476 0 -2.915476 
C -0.773193 -2.915476 -1.514823 -2.608283 -2.061553 -2.061553 
C -2.608283 -1.514823 -2.915476 -0.773193 -2.915476 0 
C -2.915476 0.773193 -2.608283 1.514823 -2.061553 2.061553 
C -1.514823 2.608283 -0.773193 2.915476 0 2.915476 
z
"/>
    </defs>
    <g clip-path="url(#pc9decada08)">
     <use xlink:href="#C2_0_7f3e70c291" x="242.130656" y="238.041385" style="fill: none; stroke: #ff7f0e; stroke-width: 1.2"/>
    </g>
    <g clip-path="url(#pc9decada08)">
     <use xlink:href="#C2_0_7f3e70c291" x="173.404816" y="249.912334" style="fill: none; stroke: #ff7f0e; stroke-width: 1.2"/>
    </g>
    <g clip-path="url(#pc9decada08)">
     <use xlink:href="#C2_0_7f3e70c291" x="150.094001" y="258.832568" style="fill: none; stroke: #ff7f0e; stroke-width: 1.2"/>
    </g>
    <g clip-path="url(#pc9decada08)">
     <use xlink:href="#C2_0_7f3e70c291" x="142.215118" y="264.333229" style="fill: none; stroke: #ff7f0e; stroke-width: 1.2"/>
    </g>
    <g clip-path="url(#pc9decada08)">
     <use xlink:href="#C2_0_7f3e70c291" x="138.234965" y="267.111982" style="fill: none; stroke: #ff7f0e; stroke-width: 1.2"/>
    </g>
   </g>
   <g id="line2d_52">
    <path d="M 130.644809 298.768115 
L 134.61082 295.909662 
" clip-path="url(#pc9decada08)" style="fill: none; stroke-dasharray: 6.66,2.88; stroke-dashoffset: 0; stroke: #1f77b4; stroke-opacity: 0.7; stroke-width: 1.8"/>
   </g>
   <g id="line2d_53">
    <path d="M 134.61082 295.909662 
L 150.307022 292.215904 
" clip-path="url(#pc9decada08)" style="fill: none; stroke-dasharray: 6.66,2.88; stroke-dashoffset: 0; stroke: #1f77b4; stroke-opacity: 0.7; stroke-width: 1.8"/>
   </g>
   <g id="line2d_54">
    <path d="M 150.307022 292.215904 
L 165.627702 281.071974 
" clip-path="url(#pc9decada08)" style="fill: none; stroke-dasharray: 6.66,2.88; stroke-dashoffset: 0; stroke: #1f77b4; stroke-opacity: 0.7; stroke-width: 1.8"/>
   </g>
   <g id="line2d_55">
    <path d="M 165.627702 281.071974 
L 210.458852 263.308657 
" clip-path="url(#pc9decada08)" style="fill: none; stroke-dasharray: 6.66,2.88; stroke-dashoffset: 0; stroke: #1f77b4; stroke-opacity: 0.7; stroke-width: 1.8"/>
   </g>
   <g id="line2d_56">
    <path d="M 210.458852 263.308657 
L 280.627993 233.148552 
" clip-path="url(#pc9decada08)" style="fill: none; stroke-dasharray: 6.66,2.88; stroke-dashoffset: 0; stroke: #1f77b4; stroke-opacity: 0.7; stroke-width: 1.8"/>
   </g>
   <g id="line2d_57">
    <path d="M 138.234965 267.111982 
L 142.215118 264.333229 
" clip-path="url(#pc9decada08)" style="fill: none; stroke-dasharray: 6.66,2.88; stroke-dashoffset: 0; stroke: #ff7f0e; stroke-opacity: 0.7; stroke-width: 1.8"/>
   </g>
   <g id="line2d_58">
    <path d="M 142.215118 264.333229 
L 150.094001 258.832568 
" clip-path="url(#pc9decada08)" style="fill: none; stroke-dasharray: 6.66,2.88; stroke-dashoffset: 0; stroke: #ff7f0e; stroke-opacity: 0.7; stroke-width: 1.8"/>
   </g>
   <g id="line2d_59">
    <path d="M 150.094001 258.832568 
L 173.404816 249.912334 
" clip-path="url(#pc9decada08)" style="fill: none; stroke-dasharray: 6.66,2.88; stroke-dashoffset: 0; stroke: #ff7f0e; stroke-opacity: 0.7; stroke-width: 1.8"/>
   </g>
   <g id="line2d_60">
    <path d="M 173.404816 249.912334 
L 242.130656 238.041385 
" clip-path="url(#pc9decada08)" style="fill: none; stroke-dasharray: 6.66,2.88; stroke-dashoffset: 0; stroke: #ff7f0e; stroke-opacity: 0.7; stroke-width: 1.8"/>
   </g>
   <g id="line2d_61">
    <path d="M 242.130656 238.041385 
L 289.025747 203.370407 
" clip-path="url(#pc9decada08)" style="fill: none; stroke-dasharray: 6.66,2.88; stroke-dashoffset: 0; stroke: #ff7f0e; stroke-opacity: 0.7; stroke-width: 1.8"/>
   </g>
   <g id="line2d_62">
    <path d="M 137.923555 232.923102 
L 141.935835 230.240954 
" clip-path="url(#pc9decada08)" style="fill: none; stroke-dasharray: 6.66,2.88; stroke-dashoffset: 0; stroke: #2ca02c; stroke-opacity: 0.7; stroke-width: 1.8"/>
   </g>
   <g id="line2d_63">
    <path d="M 141.935835 230.240954 
L 149.877679 224.931952 
" clip-path="url(#pc9decada08)" style="fill: none; stroke-dasharray: 6.66,2.88; stroke-dashoffset: 0; stroke: #2ca02c; stroke-opacity: 0.7; stroke-width: 1.8"/>
   </g>
   <g id="line2d_64">
    <path d="M 149.877679 224.931952 
L 189.345098 219.937056 
" clip-path="url(#pc9decada08)" style="fill: none; stroke-dasharray: 6.66,2.88; stroke-dashoffset: 0; stroke: #2ca02c; stroke-opacity: 0.7; stroke-width: 1.8"/>
   </g>
   <g id="line2d_65">
    <path d="M 189.345098 219.937056 
L 242.614409 204.870294 
" clip-path="url(#pc9decada08)" style="fill: none; stroke: #2ca02c; stroke-width: 1.8; stroke-linecap: square"/>
   </g>
   <g id="line2d_66">
    <path d="M 242.614409 204.870294 
L 321.061327 177.857526 
" clip-path="url(#pc9decada08)" style="fill: none; stroke: #2ca02c; stroke-width: 1.8; stroke-linecap: square"/>
   </g>
   <g id="line2d_67">
    <path d="M 137.60723 198.194718 
L 141.65216 195.612575 
" clip-path="url(#pc9decada08)" style="fill: none; stroke-dasharray: 6.66,2.88; stroke-dashoffset: 0; stroke: #d62728; stroke-opacity: 0.7; stroke-width: 1.8"/>
   </g>
   <g id="line2d_68">
    <path d="M 141.65216 195.612575 
L 157.723102 192.276549 
" clip-path="url(#pc9decada08)" style="fill: none; stroke-dasharray: 6.66,2.88; stroke-dashoffset: 0; stroke: #d62728; stroke-opacity: 0.7; stroke-width: 1.8"/>
   </g>
   <g id="line2d_69">
    <path d="M 157.723102 192.276549 
L 197.54075 187.44555 
" clip-path="url(#pc9decada08)" style="fill: none; stroke-dasharray: 6.66,2.88; stroke-dashoffset: 0; stroke: #d62728; stroke-opacity: 0.7; stroke-width: 1.8"/>
   </g>
   <g id="line2d_70">
    <path d="M 197.54075 187.44555 
L 275.625338 177.971696 
" clip-path="url(#pc9decada08)" style="fill: none; stroke-dasharray: 6.66,2.88; stroke-dashoffset: 0; stroke: #d62728; stroke-opacity: 0.7; stroke-width: 1.8"/>
   </g>
   <g id="line2d_71">
    <path d="M 275.625338 177.971696 
L 322.109216 145.210536 
" clip-path="url(#pc9decada08)" style="fill: none; stroke: #d62728; stroke-width: 1.8; stroke-linecap: square"/>
   </g>
   <g id="line2d_72">
    <path d="M 137.123272 145.062302 
L 141.218184 142.63682 
" clip-path="url(#pc9decada08)" style="fill: none; stroke: #9467bd; stroke-width: 1.8; stroke-linecap: square"/>
   </g>
   <g id="line2d_73">
    <path d="M 141.218184 142.63682 
L 149.321921 137.836846 
" clip-path="url(#pc9decada08)" style="fill: none; stroke: #9467bd; stroke-width: 1.8; stroke-linecap: square"/>
   </g>
   <g id="line2d_74">
    <path d="M 149.321921 137.836846 
L 197.771171 134.966629 
" clip-path="url(#pc9decada08)" style="fill: none; stroke-dasharray: 6.66,2.88; stroke-dashoffset: 0; stroke: #9467bd; stroke-opacity: 0.7; stroke-width: 1.8"/>
   </g>
   <g id="line2d_75">
    <path d="M 197.771171 134.966629 
L 243.856341 119.710544 
" clip-path="url(#pc9decada08)" style="fill: none; stroke-dasharray: 6.66,2.88; stroke-dashoffset: 0; stroke: #9467bd; stroke-opacity: 0.7; stroke-width: 1.8"/>
   </g>
   <g id="line2d_76">
    <path d="M 243.856341 119.710544 
L 323.710154 95.33325 
" clip-path="url(#pc9decada08)" style="fill: none; stroke-dasharray: 6.66,2.88; stroke-dashoffset: 0; stroke: #9467bd; stroke-opacity: 0.7; stroke-width: 1.8"/>
   </g>
   <g id="Path3DCollection_6">
    <defs>
     <path id="C3_0_aaa8c43bfa" d="M 0 2.915476 
C 0.773193 2.915476 1.514823 2.608283 2.061553 2.061553 
C 2.608283 1.514823 2.915476 0.773193 2.915476 -0 
C 2.915476 -0.773193 2.608283 -1.514823 2.061553 -2.061553 
C 1.514823 -2.608283 0.773193 -2.915476 0 -2.915476 
C -0.773193 -2.915476 -1.514823 -2.608283 -2.061553 -2.061553 
C -2.608283 -1.514823 -2.915476 -0.773193 -2.915476 0 
C -2.915476 0.773193 -2.608283 1.514823 -2.061553 2.061553 
C -1.514823 2.608283 -0.773193 2.915476 0 2.915476 
z
"/>
    </defs>
    <g clip-path="url(#pc9decada08)">
     <use xlink:href="#C3_0_aaa8c43bfa" x="149.877679" y="224.931952" style="fill: none; stroke: #2ca02c; stroke-width: 1.2"/>
    </g>
    <g clip-path="url(#pc9decada08)">
     <use xlink:href="#C3_0_aaa8c43bfa" x="141.935835" y="230.240954" style="fill: none; stroke: #2ca02c; stroke-width: 1.2"/>
    </g>
    <g clip-path="url(#pc9decada08)">
     <use xlink:href="#C3_0_aaa8c43bfa" x="137.923555" y="232.923102" style="fill: none; stroke: #2ca02c; stroke-width: 1.2"/>
    </g>
   </g>
   <g id="Path3DCollection_7">
    <defs>
     <path id="C4_0_949dfb9984" d="M 0 2.915476 
C 0.773193 2.915476 1.514823 2.608283 2.061553 2.061553 
C 2.608283 1.514823 2.915476 0.773193 2.915476 -0 
C 2.915476 -0.773193 2.608283 -1.514823 2.061553 -2.061553 
C 1.514823 -2.608283 0.773193 -2.915476 0 -2.915476 
C -0.773193 -2.915476 -1.514823 -2.608283 -2.061553 -2.061553 
C -2.608283 -1.514823 -2.915476 -0.773193 -2.915476 0 
C -2.915476 0.773193 -2.608283 1.514823 -2.061553 2.061553 
C -1.514823 2.608283 -0.773193 2.915476 0 2.915476 
z
"/>
    </defs>
    <g clip-path="url(#pc9decada08)">
     <use xlink:href="#C4_0_949dfb9984" x="197.54075" y="187.44555" style="fill: none; stroke: #d62728; stroke-width: 1.2"/>
    </g>
    <g clip-path="url(#pc9decada08)">
     <use xlink:href="#C4_0_949dfb9984" x="157.723102" y="192.276549" style="fill: none; stroke: #d62728; stroke-width: 1.2"/>
    </g>
    <g clip-path="url(#pc9decada08)">
     <use xlink:href="#C4_0_949dfb9984" x="141.65216" y="195.612575" style="fill: none; stroke: #d62728; stroke-width: 1.2"/>
    </g>
   </g>
   <g id="Poly3DCollection_1">
    <path d="M 134.415445 240.703458 
L 181.312997 251.780162 
L 181.338321 218.126098 
L 134.085354 207.438509 
z
" clip-path="url(#pc9decada08)" style="fill: #9467bd; fill-opacity: 0.12; stroke: #9467bd; stroke-opacity: 0.12; stroke-width: 0.7"/>
    <path d="M 106.633362 259.405171 
L 134.415445 240.703458 
L 134.085354 207.438509 
L 106.079927 225.484576 
z
" clip-path="url(#pc9decada08)" style="fill: #9467bd; fill-opacity: 0.12; stroke: #9467bd; stroke-opacity: 0.12; stroke-width: 0.7"/>
    <path d="M 106.633362 259.405171 
L 154.264697 271.021219 
L 181.312997 251.780162 
L 134.415445 240.703458 
z
" clip-path="url(#pc9decada08)" style="fill: #9467bd; fill-opacity: 0.12; stroke: #9467bd; stroke-opacity: 0.12; stroke-width: 0.7"/>
    <path d="M 106.079927 225.484576 
L 154.077867 236.696675 
L 181.338321 218.126098 
L 134.085354 207.438509 
z
" clip-path="url(#pc9decada08)" style="fill: #9467bd; fill-opacity: 0.12; stroke: #9467bd; stroke-opacity: 0.12; stroke-width: 0.7"/>
    <path d="M 154.264697 271.021219 
L 181.312997 251.780162 
L 181.338321 218.126098 
L 154.077867 236.696675 
z
" clip-path="url(#pc9decada08)" style="fill: #9467bd; fill-opacity: 0.12; stroke: #9467bd; stroke-opacity: 0.12; stroke-width: 0.7"/>
    <path d="M 106.633362 259.405171 
L 154.264697 271.021219 
L 154.077867 236.696675 
L 106.079927 225.484576 
z
" clip-path="url(#pc9decada08)" style="fill: #9467bd; fill-opacity: 0.12; stroke: #9467bd; stroke-opacity: 0.12; stroke-width: 0.7"/>
   </g>
   <g id="Path3DCollection_8">
    <defs>
     <path id="C5_0_a4b72d85e7" d="M 0 2.915476 
C 0.773193 2.915476 1.514823 2.608283 2.061553 2.061553 
C 2.608283 1.514823 2.915476 0.773193 2.915476 -0 
C 2.915476 -0.773193 2.608283 -1.514823 2.061553 -2.061553 
C 1.514823 -2.608283 0.773193 -2.915476 0 -2.915476 
C -0.773193 -2.915476 -1.514823 -2.608283 -2.061553 -2.061553 
C -2.608283 -1.514823 -2.915476 -0.773193 -2.915476 0 
C -2.915476 0.773193 -2.608283 1.514823 -2.061553 2.061553 
C -1.514823 2.608283 -0.773193 2.915476 0 2.915476 
z
"/>
    </defs>
    <g clip-path="url(#pc9decada08)">
     <use xlink:href="#C5_0_a4b72d85e7" x="243.856341" y="119.710544" style="fill: none; stroke: #9467bd; stroke-width: 1.2"/>
    </g>
    <g clip-path="url(#pc9decada08)">
     <use xlink:href="#C5_0_a4b72d85e7" x="197.771171" y="134.966629" style="fill: none; stroke: #9467bd; stroke-width: 1.2"/>
    </g>
   </g>
   <g id="text_34">
    <!-- R1 -->
    <g style="fill: #1f77b4" transform="translate(85.449599 124.791355) scale(0.07 -0.07)">
     <use xlink:href="#DejaVuSans-52"/>
     <use xlink:href="#DejaVuSans-31" transform="translate(69.482422 0)"/>
    </g>
   </g>
   <g id="text_35">
    <!-- R2 -->
    <g style="fill: #2ca02c" transform="translate(133.120791 134.527874) scale(0.07 -0.07)">
     <use xlink:href="#DejaVuSans-52"/>
     <use xlink:href="#DejaVuSans-32" transform="translate(69.482422 0)"/>
    </g>
   </g>
   <g id="text_36">
    <!-- R3 -->
    <g style="fill: #ff7f0e" transform="translate(245.198141 81.047816) scale(0.07 -0.07)">
     <use xlink:href="#DejaVuSans-52"/>
     <use xlink:href="#DejaVuSans-33" transform="translate(69.482422 0)"/>
    </g>
   </g>
   <g id="text_37">
    <!-- R4 -->
    <g style="fill: #9467bd" transform="translate(134.085354 207.438509) scale(0.07 -0.07)">
     <use xlink:href="#DejaVuSans-52"/>
     <use xlink:href="#DejaVuSans-34" transform="translate(69.482422 0)"/>
    </g>
   </g>
   <g id="Path3DCollection_9">
    <defs>
     <path id="C6_0_18ab66f3a7" d="M 0 2.44949 
C 0.649612 2.44949 1.272706 2.191396 1.732051 1.732051 
C 2.191396 1.272706 2.44949 0.649612 2.44949 -0 
C 2.44949 -0.649612 2.191396 -1.272706 1.732051 -1.732051 
C 1.272706 -2.191396 0.649612 -2.44949 0 -2.44949 
C -0.649612 -2.44949 -1.272706 -2.191396 -1.732051 -1.732051 
C -2.191396 -1.272706 -2.44949 -0.649612 -2.44949 0 
C -2.44949 0.649612 -2.191396 1.272706 -1.732051 1.732051 
C -1.272706 2.191396 -0.649612 2.44949 0 2.44949 
z
"/>
    </defs>
    <g clip-path="url(#pc9decada08)">
     <use xlink:href="#C6_0_18ab66f3a7" x="322.109216" y="145.210536" style="fill: #d62728; fill-opacity: 0.3; stroke: #d62728; stroke-opacity: 0.3"/>
    </g>
    <g clip-path="url(#pc9decada08)">
     <use xlink:href="#C6_0_18ab66f3a7" x="275.625338" y="177.971696" style="fill: #d62728; fill-opacity: 0.732824; stroke: #d62728; stroke-opacity: 0.732824"/>
    </g>
    <g clip-path="url(#pc9decada08)">
     <use xlink:href="#C6_0_18ab66f3a7" x="137.60723" y="198.194718" style="fill: #d62728; stroke: #d62728"/>
    </g>
   </g>
   <g id="Poly3DCollection_2">
    <defs>
     <path id="m6375b8a80c" d="M 165.193382 -233.704076 
L 230.989558 -220.514249 
L 307.721197 -269.715976 
L 245.198141 -281.092184 
z
" style="stroke: #ff7f0e; stroke-opacity: 0.12; stroke-width: 0.7"/>
    </defs>
    <g clip-path="url(#pc9decada08)">
     <use xlink:href="#m6375b8a80c" x="0" y="362.14" style="fill: #ff7f0e; fill-opacity: 0.12; stroke: #ff7f0e; stroke-opacity: 0.12; stroke-width: 0.7"/>
    </g>
   </g>
   <g id="Poly3DCollection_3">
    <defs>
     <path id="m1d53bdf551" d="M 72.821989 -230.399111 
L 120.810857 -220.45717 
L 133.120791 -227.612126 
L 85.449599 -237.348645 
z
" style="stroke: #1f77b4; stroke-opacity: 0.12; stroke-width: 0.7"/>
    </defs>
    <g clip-path="url(#pc9decada08)">
     <use xlink:href="#m1d53bdf551" x="0" y="362.14" style="fill: #1f77b4; fill-opacity: 0.12; stroke: #1f77b4; stroke-opacity: 0.12; stroke-width: 0.7"/>
    </g>
   </g>
   <g id="Poly3DCollection_4">
    <defs>
     <path id="mfac2917092" d="M 120.810857 -220.45717 
L 137.123272 -217.077698 
L 149.321921 -224.303154 
L 133.120791 -227.612126 
z
" style="stroke: #2ca02c; stroke-opacity: 0.12; stroke-width: 0.7"/>
    </defs>
    <g clip-path="url(#pc9decada08)">
     <use xlink:href="#mfac2917092" x="0" y="362.14" style="fill: #2ca02c; fill-opacity: 0.12; stroke: #2ca02c; stroke-opacity: 0.12; stroke-width: 0.7"/>
    </g>
   </g>
   <g id="Path3DCollection_10">
    <defs>
     <path id="C7_0_9ce3d15700" d="M 0 2.44949 
C 0.649612 2.44949 1.272706 2.191396 1.732051 1.732051 
C 2.191396 1.272706 2.44949 0.649612 2.44949 -0 
C 2.44949 -0.649612 2.191396 -1.272706 1.732051 -1.732051 
C 1.272706 -2.191396 0.649612 -2.44949 0 -2.44949 
C -0.649612 -2.44949 -1.272706 -2.191396 -1.732051 -1.732051 
C -2.191396 -1.272706 -2.44949 -0.649612 -2.44949 0 
C -2.44949 0.649612 -2.191396 1.272706 -1.732051 1.732051 
C -1.272706 2.191396 -0.649612 2.44949 0 2.44949 
z
"/>
    </defs>
    <g clip-path="url(#pc9decada08)">
     <use xlink:href="#C7_0_9ce3d15700" x="323.710154" y="95.33325" style="fill: #9467bd; fill-opacity: 0.3; stroke: #9467bd; stroke-opacity: 0.3"/>
    </g>
    <g clip-path="url(#pc9decada08)">
     <use xlink:href="#C7_0_9ce3d15700" x="149.321921" y="137.836846" style="fill: #9467bd; fill-opacity: 0.898292; stroke: #9467bd; stroke-opacity: 0.898292"/>
    </g>
    <g clip-path="url(#pc9decada08)">
     <use xlink:href="#C7_0_9ce3d15700" x="141.218184" y="142.63682" style="fill: #9467bd; fill-opacity: 0.965858; stroke: #9467bd; stroke-opacity: 0.965858"/>
    </g>
    <g clip-path="url(#pc9decada08)">
     <use xlink:href="#C7_0_9ce3d15700" x="137.123272" y="145.062302" style="fill: #9467bd; stroke: #9467bd"/>
    </g>
   </g>
  </g>
 </g>
 <defs>
  <clipPath id="pc9decada08">
   <rect x="7.2" y="22.3" width="332.64" height="332.64"/>
  </clipPath>
 </defs>
</svg>
